<?xml version="1.0" encoding="iso-8859-1"?>
<!-- Generator: Adobe Illustrator 16.0.0, SVG Export Plug-In . SVG Version: 6.00 Build 0)  -->
<!DOCTYPE svg PUBLIC "-//W3C//DTD SVG 1.1//EN" "http://www.w3.org/Graphics/SVG/1.1/DTD/svg11.dtd">
<svg xmlns="http://www.w3.org/2000/svg" xmlns:xlink="http://www.w3.org/1999/xlink" version="1.1" id="Capa_1" x="0px" y="0px" width="512px" height="512px" viewBox="0 0 551.016 551.016" style="enable-background:new 0 0 551.016 551.016;" xml:space="preserve">
<g>
	<path d="M82.21,217.702c8.53,0,18.197-1.788,29.003-6.34c43.567-18.37,69.137-5.221,69.395-5.087   c0.765,0.411,1.587,0.526,2.4,0.498c8.864,6.407,40.487,28.477,78.451,46.799c-64.7,50.653-123.768,105.274-147.846,128.023   c-2.917-0.88-5.929-1.491-9.123-1.491c-17.49,0-31.671,14.181-31.671,31.671c0,17.489,14.181,31.671,31.671,31.671   c17.041,0,30.858-13.512,31.538-30.399c20.253-19.269,80.946-75.955,147.894-128.463c8.157,2.438,16.543,1.043,22.013-4.58   c2.008-2.065,3.385-4.533,4.265-7.192c15.387,4.524,30.715,7.393,45.068,7.393c19.163,0,36.615-5.002,50.165-17.557   c3.644-3.376,6.904-6.665,9.82-9.879c7.01,0.832,13.723,0.373,19.967-1.052c20.311,9.688,43.289,10.031,61.907,5.671   c29.013-6.789,49.983-24.375,53.416-44.8c1.712-10.223,0.191-30.151-29.309-48.75c-11.236-7.096-23.313-10.987-35.831-12.384   c-3.031-7.172-7.573-13.779-13.837-19.402c-13.244-11.896-29.165-17.002-43.844-15.099c-12.384-9.524-24.184-10.05-31.527-8.989   c-21.162,3.012-39.79,23.007-46.359,49.744c-0.01,0.029-0.02,0.067-0.028,0.105c-1.023,0.334-2.027,0.698-2.993,1.09   c-17.337,6.914-25.58,21.716-22.042,39.627c1.263,6.35,3.634,12.106,7.01,17.136c-14.535,11.503-25.762,21.678-32.149,27.693   c-8.166-6.627-18.331-8.539-26.249-5.316c-31.814-14.946-61.391-33.813-79.043-46.685c-0.191-1.281-0.87-2.486-2.037-3.261   c-1.348-0.889-25.292-16.275-61.229-14.047c-1.119-1.081-2.228-2.18-3.251-3.404c-22.75-27.291-76.395-35.543-78.671-35.878   c-2.553-0.363-5.04,1.416-5.422,4.026c-0.392,2.62,1.406,5.049,4.026,5.432c0.507,0.076,50.212,7.755,71.422,31.154   c-9.524,1.587-19.708,4.428-30.418,9.104c-8.625,3.768-16.495,5.986-23.725,7.229c-22.615-8.616-38.795-28.802-39.024-29.108   c-1.626-2.084-4.628-2.458-6.713-0.822c-2.085,1.625-2.458,4.628-0.832,6.713c0.688,0.88,7.86,9.907,19.345,18.8   c-0.334,0.125-0.679,0.201-0.985,0.411c-1.119,0.755-1.798,1.903-2.027,3.137c-16.954-4.495-25.732-14.545-26.364-15.291   c-1.692-2.018-4.724-2.286-6.722-0.583c-2.018,1.693-2.295,4.686-0.612,6.713c0.201,0.249,14.325,16.515,41.023,19.995   C49.459,208.541,62.865,217.702,82.21,217.702z M107.494,202.555c-22.147,9.352-38.403,5.489-49.018-0.459   c1.616-0.124,3.261-0.287,4.944-0.516c6.493,2.266,13.445,3.72,20.779,3.72c7.325,0,14.994-1.406,22.893-4.762   c12.336-5.259,24.346-7.382,35.2-7.832c0.086,0.038,0.172,0.086,0.249,0.124C132.442,194.102,120.747,196.961,107.494,202.555z    M418.274,207.929c-0.545,0.354-1.09,0.698-1.645,1.033c-4.341-6.952-7.439-13.636-9.477-19.928   c0.938-0.478,1.855-0.946,2.802-1.405c1.884,1.778,3.529,3.729,4.867,5.833C417.729,198.07,418.686,202.976,418.274,207.929z    M471.729,228.211c12.412-15.425,19.688-36.673,18.331-56.687c7.354,1.578,14.372,4.332,20.961,8.492   c10.557,6.655,22.701,17.155,20.646,29.405c-2.085,12.402-18.092,24.47-38.91,29.347c-9.926,2.343-21.4,3.012-32.703,0.956   C464.48,236.262,468.401,232.351,471.729,228.211z M458.781,146.289c1.75,1.568,3.3,3.28,4.647,5.097   c-3.509,0.335-7.038,0.832-10.576,1.463c-1.645-4.428-3.758-8.894-6.34-13.369c-0.315-0.536-0.621-1.062-0.937-1.578   C450.08,139.681,454.545,142.483,458.781,146.289z M446.446,207.499c7.927-10.806,11.437-23.112,10.537-36.127   c4.6-0.784,9.171-1.281,13.665-1.444c2.057,15.702-3.566,33.564-13.808,46.292c-3.625,4.513-10.108,11.13-19.212,14.965   c-1.759-1.1-3.461-2.295-5.125-3.605c1.367-3.021,2.419-5.929,3.193-8.721C439.762,215.445,443.405,211.639,446.446,207.499z    M434.569,190.286c-1.062-2.678-2.314-5.021-3.586-7.028c-0.812-1.291-1.702-2.544-2.63-3.749c3.185-1.224,6.397-2.372,9.582-3.395   C437.82,181.097,436.702,185.839,434.569,190.286z M415.272,142.856c2.199-1.979,4.57-3.557,7.057-4.724   c2.965,3.442,5.518,7.277,7.621,10.93c1.646,2.84,3.032,5.642,4.17,8.396c-7.363,2.266-14.688,5.04-21.927,8.186   c-2.343-1.377-4.781-2.62-7.306-3.749C406.465,153.92,410.185,147.427,415.272,142.856z M398.882,126.906   c1.951-0.277,3.815-0.268,5.643-0.009c-0.688,0.554-1.378,1.138-2.047,1.74c-7.573,6.818-13.302,16.256-15.95,27.597   c-5.269-0.994-10.576-1.492-15.759-1.492C376.544,139.749,387.617,128.512,398.882,126.906z M398.854,216.544   c-4.169,1.147-8.443,1.923-12.709,2.286c-4.274-3.644-7.669-7.488-10.347-11.399c4.657-3.069,9.458-6.091,14.354-8.999   C392.312,204.305,395.191,210.358,398.854,216.544z M385.074,175.483c0.086,1.195,0.2,2.391,0.344,3.615   c-5.967,3.375-11.771,6.923-17.403,10.538c-1.291-5.623-1.55-10.978-1.32-15.654C372.575,173.6,378.906,174.116,385.074,175.483z    M347.513,180.408c0.306,7.085,1.615,13.961,3.863,20.511c-1.464,1.042-2.917,2.094-4.342,3.137   c-1.578-2.601-2.802-5.661-3.5-9.237C342.684,190.554,342.416,184.902,347.513,180.408z M345.771,229.12   c5.308,3.327,11.438,5.805,18.303,7.334c5.174,1.157,10.52,1.731,15.894,1.788c4.905,3.481,9.734,6.283,14.468,8.482   c-0.679,0.659-1.357,1.291-2.008,1.894c-17.452,16.16-46.034,15.089-76.759,5.985C322.392,248.455,332.872,239.237,345.771,229.12z    M92.576,193.25c12.632-5.518,24.499-8.214,35.324-9.228c0.182,0.144,0.373,0.239,0.545,0.383   c-8.042,1.338-16.485,3.653-25.111,7.325c-5.623,2.4-11.15,3.481-16.534,3.729C88.713,194.723,90.587,194.111,92.576,193.25z" fill="#00e9cf"/>
</g>
<g>
</g>
<g>
</g>
<g>
</g>
<g>
</g>
<g>
</g>
<g>
</g>
<g>
</g>
<g>
</g>
<g>
</g>
<g>
</g>
<g>
</g>
<g>
</g>
<g>
</g>
<g>
</g>
<g>
</g>
</svg>
